<?xml version="1.0" encoding="utf-8"?>
<!-- Generator: Adobe Illustrator 16.0.4, SVG Export Plug-In . SVG Version: 6.00 Build 0)  -->
<!DOCTYPE svg PUBLIC "-//W3C//DTD SVG 1.1//EN" "http://www.w3.org/Graphics/SVG/1.1/DTD/svg11.dtd">
<svg version="1.1" xmlns="http://www.w3.org/2000/svg" xmlns:xlink="http://www.w3.org/1999/xlink" x="0px" y="0px" width="187px"
	 height="185px" viewBox="0 0 187 185" enable-background="new 0 0 187 185" xml:space="preserve">
<g id="LoadingCircle">
	<g id="XMLID_1_">
		<g>
			<path fill="#B7B7B7" d="M93.862,9.3c46.962,0.44,84.892,38.63,84.892,85.712c0,47.332-38.37,85.712-85.712,85.712
				c-47.342,0-85.722-38.38-85.722-85.712c0-14.113,3.411-27.427,9.453-39.17c1.97,1.061,3.5,1.781,5.301,2.751
				c-5.592,10.883-8.752,23.226-8.752,36.299c0,43.921,35.599,79.53,79.53,79.53c43.922,0,79.521-35.608,79.521-79.53
				c0-43.582-35.049-78.97-78.51-79.511c0-1.56,0-3.561,0-5.111V9.3z"/>
			<path fill="#9494F7" d="M93.862,15.381c0,0.33,0,0.64,0,0.92h-1.251c-30.417,0.14-56.414,17.575-69.667,42.771
				c-0.3-0.17-0.59-0.33-0.87-0.48c13.193-25.667,39.93-43.221,70.778-43.221C93.191,15.372,93.532,15.372,93.862,15.381z"/>
			<path fill="#9494F7" d="M93.862,10.27c0,1.551,0,3.551,0,5.111c-0.33-0.01-0.671-0.01-1.011-0.01
				c-30.848,0-57.584,17.555-70.778,43.221c-1.801-0.97-3.331-1.69-5.301-2.751C30.996,28.195,59.813,9.29,93.042,9.29
				c0.27,0,0.55,0,0.82,0.01V10.27z"/>
			<path fill="#9494F7" d="M93.862,9.29V9.3c-0.271-0.01-0.551-0.01-0.82-0.01c-33.229,0-62.046,18.905-76.27,46.552
				c-0.01,0-0.01,0-0.02-0.01l0.01-0.02c1.041-1.991,2-4.111,3.091-6.062C34.757,23.253,63.384,8.83,93.862,9.29z"/>
		</g>
		<g>
			<path fill="none" stroke="#B7B7B7" stroke-width="2.1516" stroke-miterlimit="10" d="M93.862,9.3
				c46.962,0.44,84.892,38.63,84.892,85.712c0,47.332-38.37,85.712-85.712,85.712c-47.342,0-85.722-38.38-85.722-85.712
				c0-14.113,3.411-27.427,9.453-39.17"/>
			<path fill="none" stroke="#B7B7B7" stroke-width="1.9961" stroke-miterlimit="10" d="M93.862,15.381
				c43.461,0.541,78.51,35.929,78.51,79.511c0,43.921-35.599,79.53-79.521,79.53c-43.931,0-79.53-35.608-79.53-79.53
				c0-13.074,3.161-25.417,8.752-36.299"/>
			<path fill="none" stroke="#9494F7" stroke-width="2.1516" stroke-miterlimit="10" d="M16.762,55.812
				c1.041-1.991,2-4.111,3.091-6.062C34.757,23.253,63.384,8.83,93.862,9.29"/>
		</g>
	</g>
</g>
<g id="NCLogo">
	<polygon fill="#BF092D" points="86,35 100,35 120.267,78 106,78 93.037,48.5 79.5,78 65,78 	"/>
	<polygon fill="#BF092D" points="65.484,150.158 65,88 78,88 107,125.375 107,88 120,88 120,150 108.666,150.316 79,110.583 79,150 
			"/>
</g>
</svg>
